<svg id="Layer_1" data-name="Layer 1" xmlns="http://www.w3.org/2000/svg" viewBox="0 0 59.52 59.52"><defs><style>.cls-1{fill:#5da552;}.cls-2{fill:#fff;}</style></defs><title>ms-logo</title><path class="cls-1" d="M29.9,0.29A29.76,29.76,0,1,1,.14,30,29.77,29.77,0,0,1,29.9.29" transform="translate(-0.14 -0.29)"/><path class="cls-2" d="M42,38c2.76,0,4.86-.9,4.86-3.19,0-4.52-11.43-2.48-11.43-10.52,0-4.76,4.38-6,8.43-6a16.51,16.51,0,0,1,4.57.67,1,1,0,0,1,.9,1v3.76h-3.1v-1.1c0-1-1.43-1.19-2.29-1.19-1.81,0-4.57.24-4.57,2.71,0,4.33,11.43,2.48,11.43,10.57,0,4.43-3.33,6.43-9,6.43a16.9,16.9,0,0,1-5.76-1,0.92,0.92,0,0,1-.76-1V34.48h3.38v2.33C38.62,37.76,41,38,42,38m11-17.9h0.33a2.68,2.68,0,0,0,.33,0,0.25,0.25,0,0,0,.1-0.19,0.17,0.17,0,0,0,0-.14l-0.1-.1a1.68,1.68,0,0,0-.29,0H53v0.52h0Zm-0.29,1V19.43h0.57a1.06,1.06,0,0,1,.43,0L54,19.62a0.5,0.5,0,0,1,.1.24,0.49,0.49,0,0,1-.48.48s0.1,0,.14.1a3.25,3.25,0,0,1,.24.33l0.19,0.33H53.86l-0.14-.29a1.52,1.52,0,0,0-.29-0.38,0.36,0.36,0,0,0-.24,0H53V21.1H52.76v0h0Zm0.71-2.24a1.19,1.19,0,0,0-.67.19,1.15,1.15,0,0,0-.48.48,1.55,1.55,0,0,0-.19.67,1.19,1.19,0,0,0,.19.67,1.15,1.15,0,0,0,.48.48,1.55,1.55,0,0,0,.67.19,1.19,1.19,0,0,0,.67-0.19,1.15,1.15,0,0,0,.48-0.48,1.55,1.55,0,0,0,.19-0.67,1.19,1.19,0,0,0-.19-0.67,1.15,1.15,0,0,0-.48-0.48,1.77,1.77,0,0,0-.67-0.19h0Zm0-.24a1.4,1.4,0,0,1,.76.19,1.64,1.64,0,0,1,.57.57,1.57,1.57,0,0,1,.19.81,1.68,1.68,0,0,1-.19.81,1.64,1.64,0,0,1-.57.57,1.57,1.57,0,0,1-.81.19,1.68,1.68,0,0,1-.81-0.19A1.64,1.64,0,0,1,52,21a1.57,1.57,0,0,1-.19-0.81A1.68,1.68,0,0,1,52,19.43a1.64,1.64,0,0,1,.57-0.57A2,2,0,0,1,53.48,18.67ZM32.86,40.9h-3c-1.48,0-2-.62-2.14-2.14L27,28l0-3.1-5,16H19l-5-16L14,28,13.24,38.76c-0.14,1.52-.67,2.14-2.14,2.14h-3V38.52H8.57a0.67,0.67,0,0,0,.71-0.71l1.52-19.14h4.48L20,33l0.48,1.81L21,33l4.71-14.33h4.48l1.52,19.14a0.67,0.67,0,0,0,.71.71h0.48V40.9Z" transform="translate(-0.14 -0.29)"/></svg>