<svg xmlns="http://www.w3.org/2000/svg" width="60" height="60"><g fill="none" fill-rule="evenodd"><path fill="#5DA552" d="M29.90476.2857c16.42857 0 29.7619 13.33335 29.7619 29.76192s-13.33333 29.7619-29.7619 29.7619S.14286 46.4762.14286 30.04762 13.4762.28572 29.90476.28572"/><path fill="#FFF" d="M42 38.04762c2.7619 0 4.85714-.90476 4.85714-3.19048-.04762-4.5238-11.42857-2.4762-11.42857-10.5238 0-4.7619 4.38095-6 8.42857-6 1.66667 0 3.28572.2857 4.57143.66666.61905.19048.90476.38095.90476 1.04762v3.7619H46.2381V22.7143c0-1-1.42858-1.1905-2.28572-1.1905-1.80952 0-4.57143.2381-4.57143 2.7143-.04762 4.33333 11.42857 2.4762 11.42857 10.57142 0 4.42858-3.33333 6.42858-9.04762 6.42858-1.90476 0-4-.38096-5.7619-1.04762-.5238-.19048-.7619-.42858-.7619-.95238v-4.7619h3.38095v2.33332c0 .95238 2.38095 1.2381 3.38095 1.2381m11.04762-17.90476h.33333c.14286 0 .28572-.04762.33334-.04762.0476-.04762.0952-.09524.0952-.19048 0-.04762 0-.09524-.0476-.14286l-.09526-.09523c-.04762 0-.14286-.04762-.28572-.04762h-.33333v.5238zm-.28572 1v-1.7143h.57143c.19048 0 .33334 0 .42857.04763.09524.0476.14286.0952.2381.14282.04762.09524.09524.14285.09524.2381 0 .14285-.04762.2381-.14286.33333-.09524.09523-.19048.14285-.33333.14285.04762.04763.09524.04763.14285.09525.04762.04762.14286.19048.2381.33333l.19048.33333h-.33334l-.14285-.2857c-.09528-.19046-.2381-.33332-.28576-.38094-.04762-.04762-.14286-.04762-.2381-.04762h-.14285v.7143h-.2857v.0476zm.7143-2.2381c-.2381 0-.42858.04762-.66668.19048-.19047.09524-.38095.2857-.4762.4762-.09522.19046-.19046.42856-.19046.66666 0 .2381.04762.42857.19047.66666.09524.19048.28572.38095.4762.4762.19047.09523.42857.19047.66666.19047.2381 0 .42853-.04762.66663-.19048.19047-.09524.38095-.2857.4762-.4762.09523-.19046.19046-.42856.19046-.66665 0-.2381-.0476-.42858-.19047-.66667-.09524-.19048-.28572-.38095-.4762-.4762-.2381-.09523-.42856-.19047-.66666-.19047zm0-.2381c.2857 0 .5238.04763.7619.19048.2381.14286.42857.33334.57142.57143.14286.2381.19048.5238.19048.80953 0 .2857-.04762.5238-.19048.80952-.14285.2381-.33333.42857-.57142.57143-.2381.14285-.5238.19047-.80953.19047-.2857 0-.5238-.04762-.80952-.19047-.2381-.14286-.42857-.33334-.57143-.57143-.14286-.2381-.19048-.5238-.19048-.80952s.04762-.5238.19048-.80953c.14286-.2381.33333-.42857.57143-.57143.33333-.14285.57143-.19047.85714-.19047zm-20.61906 22.2381h-3c-1.4762 0-2-.61905-2.14285-2.14286L27 28l-.04762-3.09524-5 16H19l-5-16L13.95238 28l-.71428 10.7619c-.14286 1.5238-.66667 2.14286-2.14286 2.14286h-3V38.5238h.4762c.42856 0 .66666-.2381.71427-.71428l1.52385-19.14285h4.4762L20 33l.4762 1.80952L20.95237 33l4.7143-14.33333h4.47618l1.5238 19.14285c.04763.42858.2381.7143.7143.7143h.47618v2.38094z"/></g></svg>