<svg id="Layer_1" data-name="Layer 1" xmlns="http://www.w3.org/2000/svg" viewBox="0 0 980.01 979.77"><title>gps-target</title><path d="M466.76,11.75c-0.93.7-1.63,25.89-1.63,56v54.35h-6.07c-10.73,0-52.72,9.33-74.42,16.56-57.15,19.13-104.28,49-150.7,95.18-46.42,46.42-76.05,93.31-95.18,151.16-7.7,22.63-16.56,62.05-16.56,73.25V465l-55.29.47-55.52.7-0.7,34.29L10,535l55.52,0.47,55.52,0.7,0.7,7c1.4,16.1,10.27,54.12,16.8,74.18,19.36,57.85,49,104.74,95.41,151.16,46.42,46.19,93.54,76.05,150.7,95.18,21.69,7.23,63.68,16.56,74.42,16.56h6.07V989.88h70l0.47-54.12,0.7-53.89,23.33-4c78.15-13.3,146.73-48.29,205.05-104.74,61.35-59.49,99.84-132,113.14-213.68l4-23.33,54.12-.7L990,535V465H880.83l-1.4-13.53c-4.67-40.12-25.89-100.54-49-139C770.49,211.9,672,143.55,559.6,124.42l-23.33-4-0.7-55.05L535.1,10.11H501.51C483.32,10.12,467.46,10.82,466.76,11.75Zm83.51,181.49c123.87,18.43,220.21,104.28,252.17,225.11,20.76,78.15,9.1,171.23-29.86,239.34-45.26,79.32-117.81,131.1-209,149.53-29.16,5.83-98.91,5.83-126.44-.23-98-21.23-172.63-78.15-214.62-163.53-22.63-46-32.66-89.34-32.66-142.3s10-96.34,32.66-142.3c46.19-93.78,131.8-153.26,241.44-167.49C481.92,189,528.58,190,550.27,193.24Z" transform="translate(-9.99 -10.11)"/><path d="M471,324.11c-73.25,15.4-128.3,67.42-144.63,136.7-1.87,8.4-3.5,25.89-3.5,40.36,0,49.22,15.4,88.41,48.52,123.17,34.06,35.46,71.15,52.25,120.84,54.59,36.16,1.63,56.45-2.57,88.41-18,98.68-47.59,129.94-174.26,65.55-264.54-24.49-34.53-64.15-60.65-105.67-70C525.08,322.94,483.32,321.78,471,324.11Z" transform="translate(-9.99 -10.11)"/></svg>