<svg id="Layer_1" data-name="Layer 1" xmlns="http://www.w3.org/2000/svg" viewBox="0 0 980.01 979.77"><title>gps-target-error</title><path d="M935.41,465H880.83l-1.4-13.53c-4.2-36.08-21.78-88.55-42.08-126.75l-49.9,49.9a320.83,320.83,0,0,1,15,43.73c20.76,78.15,9.1,171.23-29.86,239.34-45.26,79.32-117.81,131.1-209,149.53C534.4,813,464.65,813,437.12,807a348.73,348.73,0,0,1-62.39-19.65l-50.22,50.22a367.28,367.28,0,0,0,60.13,26.11c21.69,7.23,63.68,16.56,74.42,16.56h6.07V989.88h70l0.47-54.12,0.7-53.89,23.33-4c78.15-13.3,146.73-48.29,205-104.74,61.35-59.49,99.84-132,113.14-213.68l4-23.33,54.12-.7L990,535V465H935.41Z" transform="translate(-9.99 -10.11)"/><path d="M882.67,34.14L723,193.82a385.25,385.25,0,0,0-163.39-69.4l-23.33-4-0.7-55.05L535.1,10.11H501.51c-18.19,0-34,.71-34.75,1.64-0.93.7-1.63,25.89-1.63,56v54.35h-6.07c-10.73,0-52.72,9.33-74.42,16.56-57.15,19.13-104.28,49-150.7,95.18-46.42,46.42-76,93.31-95.18,151.16-7.7,22.63-16.56,62-16.56,73.25V465l-55.29.47-55.52.7-0.7,34.29L10,535l55.52,0.47,55.52,0.7,0.7,7c1.4,16.1,10.27,54.12,16.8,74.18,13.09,39.12,30.89,73.22,55.39,105.56L34.14,882.67,76.57,925.1,925.1,76.57ZM222.5,643.46c-22.63-46-32.66-89.34-32.66-142.3s10-96.34,32.66-142.3c46.19-93.78,131.8-153.26,241.44-167.49,18-2.33,64.64-1.4,86.33,1.87,46.46,6.91,89,23.32,125.81,47.49l-98.65,98.65a174.15,174.15,0,0,0-37-12.93c-15.4-3.51-57.16-4.67-69.52-2.34-73.25,15.4-128.3,67.42-144.63,136.7-1.87,8.4-3.5,25.89-3.5,40.36,0,28.6,5.21,53.81,16.07,76.74l-98,98A312.69,312.69,0,0,1,222.5,643.46Z" transform="translate(-9.99 -10.11)"/></svg>