<svg id="Layer_1" data-name="Layer 1" xmlns="http://www.w3.org/2000/svg" viewBox="0 0 32 32"><defs><style>.cls-1{fill:#333;}</style></defs><title>mobile-toolbar-news-2</title><g id="news"><path class="cls-1" d="M29,0H7A3,3,0,0,0,4,3V5H3A3,3,0,0,0,0,8V28a4,4,0,0,0,4,4H28a4,4,0,0,0,4-4V3A3,3,0,0,0,29,0Zm1,28a2,2,0,0,1-2,2H4a2,2,0,0,1-2-2V8A1,1,0,0,1,3,7H4V27a1,1,0,0,0,2,0V3A1,1,0,0,1,7,2H29a1,1,0,0,1,1,1V28Z"/><path class="cls-1" d="M19.5,13h8a0.5,0.5,0,0,0,0-1h-8A0.5,0.5,0,0,0,19.5,13Z"/><path class="cls-1" d="M19.5,10h8a0.5,0.5,0,1,0,0-1h-8A0.5,0.5,0,1,0,19.5,10Z"/><path class="cls-1" d="M19.5,7h8a0.5,0.5,0,0,0,0-1h-8A0.5,0.5,0,0,0,19.5,7Z"/><path class="cls-1" d="M16.5,27h-8a0.5,0.5,0,0,0,0,1h8A0.5,0.5,0,0,0,16.5,27Z"/><path class="cls-1" d="M16.5,24h-8a0.5,0.5,0,0,0,0,1h8A0.5,0.5,0,0,0,16.5,24Z"/><path class="cls-1" d="M16.5,21h-8a0.5,0.5,0,0,0,0,1h8A0.5,0.5,0,0,0,16.5,21Z"/><path class="cls-1" d="M27.5,27h-8a0.5,0.5,0,0,0,0,1h8A0.5,0.5,0,0,0,27.5,27Z"/><path class="cls-1" d="M27.5,24h-8a0.5,0.5,0,0,0,0,1h8A0.5,0.5,0,0,0,27.5,24Z"/><path class="cls-1" d="M27.5,21h-8a0.5,0.5,0,0,0,0,1h8A0.5,0.5,0,0,0,27.5,21Z"/><path class="cls-1" d="M27.5,15H8.5a0.5,0.5,0,0,0,0,1h19A0.5,0.5,0,0,0,27.5,15Z"/><path class="cls-1" d="M27.5,18H8.5a0.5,0.5,0,0,0,0,1h19A0.5,0.5,0,0,0,27.5,18Z"/><path class="cls-1" d="M9,13h7a1,1,0,0,0,1-1V5a1,1,0,0,0-1-1H9A1,1,0,0,0,8,5v7A1,1,0,0,0,9,13Zm1-7h5v5H10V6Z"/></g></svg>