<svg id="Capa_1" data-name="Capa 1" xmlns="http://www.w3.org/2000/svg" viewBox="0 0 486.92 486.85"><defs><style>.cls-1{fill:#010002;}</style></defs><title>mobile-toolbar-tools</title><path class="cls-1" d="M13.36,409.06a45.6,45.6,0,0,0,64.51,64.48L227.59,323.79l-64.51-64.45Z" transform="translate(0 -0.04)"/><polygon class="cls-1" points="387.55 131.54 452.75 97.83 486.89 31.83 455.06 0 389.1 34.17 355.32 99.31 276.01 178.72 308.17 210.94 387.55 131.54"/><path class="cls-1" d="M401.83,304.64l-6.14-.61A90.45,90.45,0,0,0,364.17,310L177,122.76a90.46,90.46,0,0,0,5.93-31.52l-0.61-6.14C179.1,37.64,140,0,91.73,0A90.24,90.24,0,0,0,52.64,9.16l60.59,60.59a29.74,29.74,0,0,1,6.84,10.94,30.38,30.38,0,0,1-49.82,32L9.65,52.14A90.24,90.24,0,0,0,.53,91.24c0,48.27,37.6,87.37,85.06,90.59l6.14,0.61a91.15,91.15,0,0,0,31.52-5.9L310.39,363.71a91.84,91.84,0,0,0-5.87,31.52l0.64,6.14c3.16,47.48,42.29,85.06,90.56,85.06a89.28,89.28,0,0,0,39.09-9.12l-60.59-60.59a31,31,0,0,1-6.9-10.91,30.3,30.3,0,0,1,28.39-41,29.9,29.9,0,0,1,10.58,2.07,29.16,29.16,0,0,1,10.91,6.84l60.59,60.59a89.92,89.92,0,0,0,9.12-39.09C486.89,347,449.29,307.86,401.83,304.64Z" transform="translate(0 -0.04)"/></svg>