<svg id="Capa_1" data-name="Capa 1" xmlns="http://www.w3.org/2000/svg" viewBox="0 0 46 100"><title>mobile-toolbar-info</title><path d="M35.16,0c6.7,0,10,4.57,10,9.79,0,6.52-5.81,12.56-13.39,12.56-6.34,0-10-3.75-9.87-9.95A12.86,12.86,0,0,1,35.16,0ZM14.54,100c-5.29,0-9.16-3.26-5.46-17.61l6.07-25.46c1.06-4.08,1.23-5.71,0-5.71-1.59,0-8.45,2.82-12.51,5.59L0,52.41C12.86,41.48,27.66,35.07,34,35.07c5.28,0,6.17,6.36,3.53,16.15L30.58,78c-1.23,4.73-.7,6.36.53,6.36,1.59,0,6.79-2,11.9-6l3,4.08C33.49,95.1,19.83,100,14.54,100Z"/></svg>