<svg id="レイヤー_1" data-name="レイヤー 1" xmlns="http://www.w3.org/2000/svg" viewBox="0 0 593.15 593.16"><title>mobile-toolbar-links-2</title><path d="M231.2,415.26a32.5,32.5,0,0,1-46,0h0a32.5,32.5,0,0,1,0-46L369.8,184.74a32.5,32.5,0,0,1,46,0h0a32.5,32.5,0,0,1,0,46Z" transform="translate(-3.92 -3.42)"/><path d="M329.34,194.09L449.15,74.28a16.28,16.28,0,0,1,23,0l54.05,54.05a16.28,16.28,0,0,1,0,23L406.41,271.17A16.22,16.22,0,0,1,392,275.65l-45.48,45.48c32,25.12,78.88,22.94,108.34-6.51L573.21,196.29c31.78-31.78,31.85-83.88.06-115.67L519.88,27.23C488.09-4.56,436-4.49,404.21,27.29L285.88,145.62c-29.45,29.45-31.64,76.33-6.51,108.34l45.48-45.48A16.22,16.22,0,0,1,329.34,194.09Z" transform="translate(-3.92 -3.42)"/><path d="M268.84,408.74L149,528.55a16.28,16.28,0,0,1-23,0L71.95,474.5a16.28,16.28,0,0,1,0-23L191.76,331.66a16.22,16.22,0,0,1,14.39-4.49l48.31-48.31a82.11,82.11,0,0,0-108.34,6.51L27.79,403.71C-4,435.49-4.06,487.59,27.73,519.38l53.39,53.39c31.79,31.79,83.88,31.72,115.67-.06L315.12,454.38c29.45-29.45,31.64-76.33,6.51-108.34l-48.31,48.31A16.22,16.22,0,0,1,268.84,408.74Z" transform="translate(-3.92 -3.42)"/></svg>