<svg id="Layer_1" data-name="Layer 1" xmlns="http://www.w3.org/2000/svg" viewBox="0 0 179.8 139.6"><title>offline</title><path d="M169,30.2L147.4,51.8a127.12,127.12,0,0,0-137.2,28L23,92.6A109.26,109.26,0,0,1,133.2,66L118.4,80.8A89.9,89.9,0,0,0,36,105.6l12.8,12.8a72.18,72.18,0,0,1,53.4-21.2l-22,22a52.65,52.65,0,0,0-18.6,12.2l3.2,3.2L41.6,157.4l7,7L176,37.2Z" transform="translate(-10.2 -30.2)"/><path d="M87.2,157L100,169.8,112.8,157A17.87,17.87,0,0,0,87.2,157Z" transform="translate(-10.2 -30.2)"/><path d="M93.2,134.2a36.47,36.47,0,0,1,32.6,10l12.8-12.8A54.28,54.28,0,0,0,111,116.6Z" transform="translate(-10.2 -30.2)"/><path d="M125.6,101.8a73.12,73.12,0,0,1,25.8,16.6l12.8-12.8A87.84,87.84,0,0,0,139.4,88Z" transform="translate(-10.2 -30.2)"/><path d="M166.2,61.2L153,74.4a109.68,109.68,0,0,1,24.2,18.2L190,79.8A139.16,139.16,0,0,0,166.2,61.2Z" transform="translate(-10.2 -30.2)"/></svg>