<svg id="Layer_1" data-name="Layer 1" xmlns="http://www.w3.org/2000/svg" viewBox="0 0 36 36"><title>social-linkedin</title><g id="Page-1"><g id="intranet.st.5"><g id="Aside-Left"><g id="Group-16"><g id="Group"><g id="menu-linkedin"><path id="Shape" d="M18,0A18,18,0,1,0,36,18,18,18,0,0,0,18,0ZM12.41,10.84a1.78,1.78,0,0,1,0,3.56h0A1.78,1.78,0,0,1,12.41,10.84Zm2,14.36H10.8V15.3h3.6v9.9h0Zm11.7,0H22.5V20c0-1.25-.19-2.1-1.28-2.1A1.38,1.38,0,0,0,19.89,19a2.19,2.19,0,0,0-.09.75V25.2H16.2V15.3h3.6V17c0-.63,1.12-1.52,2.72-1.52,2,0,3.58.23,3.58,3.43v6.3h0Z"/></g></g></g></g></g></g></svg>