<svg id="Layer_1" data-name="Layer 1" xmlns="http://www.w3.org/2000/svg" viewBox="0 0 36 36"><title>social-twitter</title><g id="Page-1"><g id="intranet.st.5"><g id="Aside-Left"><g id="Group-16"><g id="Group"><g id="menu-twitter"><path id="Shape" d="M18,0A18,18,0,1,0,36,18,18,18,0,0,0,18,0Zm7.9,13.13a13,13,0,0,1-1,1,1.36,1.36,0,0,0-.59,1.27,11.31,11.31,0,0,1-.86,3.18A9.66,9.66,0,0,1,19.9,23a8.65,8.65,0,0,1-7,.83,8,8,0,0,1-2.05-1,3,3,0,0,1,.87-0.09,5.8,5.8,0,0,0,2.85-.83l0.58-.36L14.5,21.3a3.27,3.27,0,0,1-2-1.84c-0.06-.24,0-0.25.55-0.25h0.62l-0.52-.26a3.51,3.51,0,0,1-1.46-1.44,4.16,4.16,0,0,1-.38-1.5,1.21,1.21,0,0,1,.5.12c0.73,0.28.83,0.21,0.4-.26a3.35,3.35,0,0,1-.66-3.32L11.74,12l0.7,0.73a8.53,8.53,0,0,0,5.07,2.61L18,15.41V14.3h0v0.56a3.22,3.22,0,0,1,2.08-3.23,3.48,3.48,0,0,1,1.86,0,4.28,4.28,0,0,1,.9.49l0.55,0.14s2.25-1.06,2.25-1A7.89,7.89,0,0,1,24.51,13c-0.45.51-.12,0.46,0.79,0.12C25.83,12.88,26,12.92,25.9,13.13Z"/></g></g></g></g></g></g></svg>