<?xml version="1.0" encoding="UTF-8"?>
<svg width="36px" height="36px" viewBox="0 0 36 36" version="1.1" xmlns="http://www.w3.org/2000/svg" xmlns:xlink="http://www.w3.org/1999/xlink">
    <!-- Generator: Sketch 47.1 (45422) - http://www.bohemiancoding.com/sketch -->
    <title>menu-facebook</title>
    <desc>Created with Sketch.</desc>
    <defs></defs>
    <g id="Page-1" stroke="none" stroke-width="1" fill="none" fill-rule="evenodd" opacity="0.8">
        <g id="intranet.st.5" transform="translate(-151.000000, -954.000000)" fill-rule="nonzero" fill="#FFFFFF">
            <g id="Aside-Left" transform="translate(0.000000, 80.000000)">
                <g id="Group-16" transform="translate(100.000000, 823.000000)">
                    <g id="Group" transform="translate(0.000000, 51.000000)">
                        <g id="menu-facebook" transform="translate(51.000000, 0.000000)">
                            <path d="M18,0 C8.0595,0 0,8.0595 0,18 C0,27.9405 8.0595,36 18,36 C27.9405,36 36,27.9405 36,18 C36,8.0595 27.9405,0 18,0 Z M22.1679,18 L19.8,18 L19.8,26.1 L16.2,26.1 L16.2,18 L14.4,18 L14.4,15.3 L16.2,15.3 L16.2,13.5315 C16.2,11.2536 17.1936,9.9 20.0727,9.9 L22.5,9.9 L22.5,12.6 L20.988,12.6 C19.8675,12.6 19.8,13.0815 19.8,13.8096 L19.8,15.3 L22.5,15.3 L22.1679,18 Z" id="Shape"></path>
                        </g>
                    </g>
                </g>
            </g>
        </g>
    </g>
</svg>