<svg id="Layer_1" data-name="Layer 1" xmlns="http://www.w3.org/2000/svg" viewBox="0 0 36 36"><title>social-youtube</title><g id="Page-1"><g id="intranet.st.5"><g id="Aside-Left"><g id="Group-16"><g id="Group"><g id="menu-youtube"><polygon id="Shape" points="16.21 20.69 21.36 17.55 16.21 14.41 16.21 20.69"/><path id="Shape-2" d="M18,0A18,18,0,1,0,36,18,18,18,0,0,0,18,0Zm8.68,22.27A2.28,2.28,0,0,1,24.74,24c-2.23.3-6.74,0.3-6.74,0.3s-4.51,0-6.74-.25a2.28,2.28,0,0,1-1.94-1.78A19.47,19.47,0,0,1,9,18a19.36,19.36,0,0,1,.32-4.27A2.28,2.28,0,0,1,11.26,12c2.23-.3,6.74-0.3,6.74-0.3s4.51,0,6.74.25a2.28,2.28,0,0,1,1.94,1.78A19.47,19.47,0,0,1,27,18,19.47,19.47,0,0,1,26.68,22.27Z"/></g></g></g></g></g></g></svg>