<svg id="Layer_1" data-name="Layer 1" xmlns="http://www.w3.org/2000/svg" viewBox="0 0 18 18"><title>tools-slack</title><g id="_-" data-name="-"><g id="intranet.st.5"><g id="Aside-Left"><g id="Group-9"><g id="Group-13"><g id="Group-10"><g id="Group-27"><g id="Group-2"><polygon id="Rectangle-path" points="7.47 8.2 9.85 7.41 10.62 9.7 8.24 10.5 7.47 8.2"/><path id="Shape" d="M17.25,6.52C15.39,0.34,12.71-1.1,6.52.75S-1.1,5.29.75,11.48s4.53,7.63,10.72,5.77S19.1,12.71,17.25,6.52Zm-3.12,4L13,10.93l0.4,1.21a0.93,0.93,0,0,1-.59,1.18,0.8,0.8,0,0,1-.32,0,1,1,0,0,1-.86-0.63l-0.4-1.21-2.4.81,0.4,1.21a0.93,0.93,0,0,1-.59,1.18,0.8,0.8,0,0,1-.32,0,1,1,0,0,1-.86-0.63L7,12.91l-1.17.39a0.8,0.8,0,0,1-.32,0,1,1,0,0,1-.86-0.63,0.93,0.93,0,0,1,.59-1.18l1.17-.39L5.65,8.83l-1.17.39a0.8,0.8,0,0,1-.32,0A1,1,0,0,1,3.3,8.63a0.93,0.93,0,0,1,.59-1.18l1.17-.39L4.65,5.85a0.93,0.93,0,0,1,1.77-.59l0.4,1.21,2.4-.81L8.83,4.45a0.93,0.93,0,0,1,1.77-.59L11,5.07l1.17-.39a0.93,0.93,0,1,1,.59,1.77l-1.17.39,0.78,2.32,1.17-.39A0.93,0.93,0,1,1,14.12,10.54Z" transform="translate(0 0)"/></g></g></g></g></g></g></g></g></svg>