<svg id="Layer_1" data-name="Layer 1" xmlns="http://www.w3.org/2000/svg" viewBox="0 0 17.58 17.58"><title>tools-jira</title><g id="_-" data-name="-"><g id="intranet.st.5"><g id="Aside-Left"><g id="Group-9"><g id="Group-13"><g id="Group-10"><g id="Group-26"><g id="Jira-white"><path id="Shape" d="M16.85,0H8.44A3.83,3.83,0,0,0,9.55,2.7a3.78,3.78,0,0,0,2.68,1.12h1.55v1.5a3.81,3.81,0,0,0,3.8,3.82V0.73A0.73,0.73,0,0,0,16.85,0Z"/><path id="Shape-2" data-name="Shape" d="M12.63,4.22H4.22A3.81,3.81,0,0,0,8,8H9.56v1.5a3.83,3.83,0,0,0,1.11,2.7,3.79,3.79,0,0,0,2.68,1.12V5A0.73,0.73,0,0,0,12.63,4.22Z"/><path id="Shape-3" data-name="Shape" d="M8.41,8.44H0a3.81,3.81,0,0,0,3.8,3.82H5.35v1.5a3.81,3.81,0,0,0,3.79,3.82V9.17A0.73,0.73,0,0,0,8.41,8.44Z"/></g></g></g></g></g></g></g></g></svg>