<svg id="Layer_1" data-name="Layer 1" xmlns="http://www.w3.org/2000/svg" viewBox="0 0 18 17.05"><title>tools-github</title><g id="_-" data-name="-"><g id="intranet.st.5"><g id="Aside-Left"><g id="Group-9"><g id="Group-13"><g id="Group-10"><g id="Group-28"><g id="Group-29"><g id="Page-1"><g id="Group-3"><path id="Fill-1" d="M9,0.9A8.87,8.87,0,0,0,0,9.65a8.77,8.77,0,0,0,6.15,8.3,0.45,0.45,0,0,0,.61-0.42c0-.21,0-0.9,0-1.63-2.5.53-3-1-3-1a2.34,2.34,0,0,0-1-1.28c-0.82-.54.06-0.53,0.06-0.53a1.89,1.89,0,0,1,1.38.9,2,2,0,0,0,2.62.73,1.84,1.84,0,0,1,.57-1.17c-2-.22-4.1-1-4.1-4.32a3.33,3.33,0,0,1,.93-2.35,3.06,3.06,0,0,1,.09-2.31s0.76-.23,2.48.9a8.78,8.78,0,0,1,4.51,0c1.72-1.13,2.47-.9,2.47-0.9a3.05,3.05,0,0,1,.09,2.31,3.32,3.32,0,0,1,.93,2.35c0,3.36-2.11,4.1-4.11,4.31a2.06,2.06,0,0,1,.61,1.62c0,1.17,0,2.11,0,2.4a0.45,0.45,0,0,0,.62.42A8.77,8.77,0,0,0,18,9.65,8.87,8.87,0,0,0,9,.9" transform="translate(0 -0.9)"/><path id="Fill-4" d="M3.39,13a0.15,0.15,0,0,1-.22,0A0.21,0.21,0,0,1,3,12.85a0.15,0.15,0,0,1,.23,0,0.2,0.2,0,0,1,.12.24" transform="translate(0 -0.9)"/><path id="Fill-6" d="M3.71,13.37a0.2,0.2,0,0,1-.25-0.05,0.16,0.16,0,0,1,0-.24,0.2,0.2,0,0,1,.25.05,0.16,0.16,0,0,1,0,.24" transform="translate(0 -0.9)"/><path id="Fill-8" d="M4,13.8a0.22,0.22,0,0,1-.25-0.08,0.15,0.15,0,0,1,0-.23,0.22,0.22,0,0,1,.25.08,0.15,0.15,0,0,1,0,.23" transform="translate(0 -0.9)"/><path id="Fill-10" d="M4.46,14.25a0.18,0.18,0,0,1-.25,0A0.18,0.18,0,0,1,4.15,14a0.19,0.19,0,0,1,.25,0,0.17,0.17,0,0,1,.05.24" transform="translate(0 -0.9)"/><path id="Fill-12" d="M5.06,14.54a0.15,0.15,0,0,1-.22.09,0.21,0.21,0,0,1-.14-0.22,0.15,0.15,0,0,1,.22-0.09,0.21,0.21,0,0,1,.14.22" transform="translate(0 -0.9)"/><path id="Fill-14" d="M5.77,14.58a0.18,0.18,0,0,1-.18.17,0.18,0.18,0,0,1-.19-0.17,0.18,0.18,0,0,1,.18-0.17,0.18,0.18,0,0,1,.19.17" transform="translate(0 -0.9)"/><path id="Fill-16" d="M6.43,14.46a0.2,0.2,0,0,1-.16.21,0.16,0.16,0,0,1-.21-0.12,0.2,0.2,0,0,1,.16-0.21,0.16,0.16,0,0,1,.21.12" transform="translate(0 -0.9)"/></g></g></g></g></g></g></g></g></g></g></svg>