<svg data-name="Layer 1" xmlns="http://www.w3.org/2000/svg" viewBox="0 0 14 23"><path d="M14 21.14L13 6.61l-.36-6A.59.59 0 0 0 12 0a1.88 1.88 0 0 0-1.84 1.65L9 8.22a2 2 0 0 0 2 2.31h.4l-.8 10.65A1.66 1.66 0 0 0 12.19 23h.16A1.72 1.72 0 0 0 14 21.14z"/><path data-name="Shape" d="M4.88.51a.49.49 0 0 0-.4-.51.48.48 0 0 0-.6.49s-.08 3.24-.12 4.44a.35.35 0 0 1-.32.33.32.32 0 0 1-.32-.33L3 .51A.49.49 0 0 0 2.6 0a.48.48 0 0 0-.6.51s-.08 3.22-.12 4.42a.35.35 0 0 1-.32.33.32.32 0 0 1-.32-.33c0-1.19-.12-4.42-.12-4.42A.53.53 0 0 0 .52 0a.49.49 0 0 0-.4.49L0 5.21V6a2.78 2.78 0 0 0 .72 1.89l1 .95-.96 12.35A1.66 1.66 0 0 0 2.4 23h.16a1.66 1.66 0 0 0 1.64-1.81L3.28 8.83l1-.95A2.78 2.78 0 0 0 5 6v-.74z"/></svg>