<svg id="Layer_1" data-name="Layer 1" xmlns="http://www.w3.org/2000/svg" viewBox="0 0 14.01 20.02"><title>tools-menu</title><path d="M14,18.14L13,6.61l-0.36-6A0.59,0.59,0,0,0,12.07,0H12a1.88,1.88,0,0,0-1.84,1.65L9,8.22a2,2,0,0,0,1.67,2.29l0.33,0h0.4l-0.8,7.65A1.66,1.66,0,0,0,12.09,20h0.26A1.72,1.72,0,0,0,14,18.22S14,18.17,14,18.14Z" transform="translate(0 0.02)"/><path d="M4.48,0a0.48,0.48,0,0,0-.6.49S3.8,3.73,3.76,4.93a0.35,0.35,0,0,1-.32.33,0.32,0.32,0,0,1-.32-0.32h0L3,0.51A0.49,0.49,0,0,0,2.6,0,0.48,0.48,0,0,0,2,.51S1.92,3.73,1.88,4.93a0.35,0.35,0,0,1-.32.33,0.32,0.32,0,0,1-.32-0.32h0c0-1.19-.12-4.42-0.12-4.42A0.53,0.53,0,0,0,.57,0H0.52a0.49,0.49,0,0,0-.4.49L0,5.21V6A2.78,2.78,0,0,0,.72,7.89l1,1-1,9.35A1.66,1.66,0,0,0,2.26,20h0.3a1.66,1.66,0,0,0,1.65-1.67s0-.09,0-0.14L3.28,8.83l1-1A2.78,2.78,0,0,0,5,6V5.26L4.88,0.51A0.49,0.49,0,0,0,4.48,0Z" transform="translate(0 0.02)"/></svg>