<svg id="Layer_1" data-name="Layer 1" xmlns="http://www.w3.org/2000/svg" viewBox="0 0 17.93 17.54"><title>tools-generic</title><g id="_-" data-name="-"><g id="intranet.st.5"><g id="Aside-Left"><g id="Group-9"><g id="Group-13"><g id="Group-10"><g id="Group-22"><g id="Group-21"><g id="Group-Copy"><path id="Shape" d="M0.64,13.72l-0.56.93a0.57,0.57,0,0,0,.19.78L4,17.72a0.57,0.57,0,0,0,.79-0.19l0.55-.92c1.47-2.43,3-2.13,5.62-.87l3.68,1.75a0.57,0.57,0,0,0,.77-0.29l1.77-4a0.57,0.57,0,0,0-.28-0.75c-0.78-.37-2.32-1.1-3.71-1.77C8.15,8.27,3.89,8.43.64,13.72Z" transform="translate(0 -0.27)"/><path id="Shape-2" data-name="Shape" d="M17.29,4.36l0.56-.93a0.57,0.57,0,0,0-.19-0.78L13.94,0.36a0.57,0.57,0,0,0-.79.19l-0.55.92C11.13,3.9,9.65,3.6,7,2.33L3.3,0.58a0.57,0.57,0,0,0-.77.29l-1.77,4A0.57,0.57,0,0,0,1,5.61C1.82,6,3.37,6.71,4.75,7.38,9.78,9.81,14,9.65,17.29,4.36Z" transform="translate(0 -0.27)"/></g></g></g></g></g></g></g></g></g></svg>