
<svg width="21px" height="11px" viewBox="0 0 21 11" version="1.1" xmlns="http://www.w3.org/2000/svg" xmlns:xlink="http://www.w3.org/1999/xlink">
    <!-- Generator: Sketch 47.1 (45422) - http://www.bohemiancoding.com/sketch -->
    <desc>Cloud icon - Created with Sketch.</desc>
    <defs></defs>
    <g id="-" stroke="none" stroke-width="1" fill="none" fill-rule="evenodd">
        <g id="intranet.st.5" transform="translate(-242.000000, -338.000000)" fill-rule="nonzero" fill="#FFFFFF">
            <g id="Aside-Left" transform="translate(0.000000, 80.000000)">
                <g id="Group-9" transform="translate(100.000000, 75.000000)">
                    <g id="Group-13" transform="translate(0.000000, 51.000000)">
                        <g id="Group-10">
                            <g id="Group-25" transform="translate(117.000000, 132.000000)">
                                <path d="M45.9995333,7.69901411 C45.9993,7.6306639 45.9955667,7.56648421 45.9892667,7.50485317 C45.8924333,5.91727471 44.6886667,4.63020548 43.1323333,4.39294916 C42.9379667,1.93489021 40.869,0 38.3436333,0 C36.6676,0 35.1927,0.85263992 34.3326333,2.14434306 C33.9663,2.06996876 33.5836333,2.02965372 33.1897667,2.02965372 C31.2430667,2.02965372 29.5672667,2.99397094 28.8124333,4.3797425 C28.6719667,4.36190194 28.5296333,4.34985377 28.3845,4.34985377 C26.5152667,4.34985377 25,5.8542535 25,7.7101355 C25,9.33107813 26.0985333,10.8083695 27.6611667,10.9677761 C27.9043,10.9923358 28.6724333,10.9999818 28.6724333,10.9999818 L42.2085667,10.9999818 C42.2085667,10.9999818 43.0271,11.0016036 43.2984667,10.9742635 C44.7339333,10.8294538 45.8033,9.5497988 45.9743333,8.10633503 C45.9743333,8.10355468 45.9750333,8.10100603 45.9755,8.09845737 C45.9794667,8.06439812 45.9822667,8.03033886 45.9853,7.99604791 C45.9939333,7.90313796 46,7.80906953 46,7.71268415 L46,7.7101355 C46,7.70619667 45.9995333,7.70295293 45.9995333,7.69901411 Z" id="Shape"></path>
                            </g>
                        </g>
                    </g>
                </g>
            </g>
        </g>
    </g>
</svg>