<svg id="Layer_1" data-name="Layer 1" xmlns="http://www.w3.org/2000/svg" viewBox="0 0 21 11"><title>tools-cloud</title><g id="_-" data-name="-"><g id="intranet.st.5"><g id="Aside-Left"><g id="Group-9"><g id="Group-13"><g id="Group-10"><g id="Group-25"><path id="Shape" d="M21,7.7c0-.07,0-0.13,0-0.19a3.36,3.36,0,0,0-2.86-3.11,4.81,4.81,0,0,0-8.8-2.25A5.74,5.74,0,0,0,8.19,2,4.93,4.93,0,0,0,3.81,4.38,3.36,3.36,0,0,0,0,7.71,3.16,3.16,0,0,0,2.66,11c0.24,0,1,0,1,0H17.21S18,11,18.3,11A3.17,3.17,0,0,0,21,8.11h0V8c0-.09,0-0.19,0-0.28h0Z"/></g></g></g></g></g></g></g></svg>