<svg id="Layer_1" data-name="Layer 1" xmlns="http://www.w3.org/2000/svg" viewBox="0 0 252.78 252.77"><title>DopplerAvatarRounded</title><path d="M126.39,0A126.39,126.39,0,1,0,252.78,126.39,126.39,126.39,0,0,0,126.39,0Zm60.67,124.43c-7.44,12.14-28.49,10.56-33.25-3.39,0,0-5.62-20.69-27.43-20.86C104.59,100.36,99,121,99,121c-4.74,14-25.8,15.53-33.23,3.39-4.92-8-2.91-13.69-2.12-16.45,0,0,15.56-45.33,62.72-45.33h0.13c47.16,0,62.71,45.33,62.71,45.33C190,110.74,192,116.41,187.06,124.43Z" transform="translate(0 0)"/></svg>